<?xml version="1.0" standalone="no"?>
<!DOCTYPE svg PUBLIC "-//W3C//DTD SVG 20010904//EN"
 "http://www.w3.org/TR/2001/REC-SVG-20010904/DTD/svg10.dtd">
<svg version="1.0" xmlns="http://www.w3.org/2000/svg"
 width="260.000000pt" height="260.000000pt" viewBox="0 0 260.000000 260.000000"
 preserveAspectRatio="xMidYMid meet">
<metadata>
Created by potrace 1.14, written by Peter Selinger 2001-2017
</metadata>
<g transform="translate(0.000000,260.000000) scale(0.100000,-0.100000)"
fill="#000000" stroke="none">
<path d="M1155 2023 c-356 -73 -555 -413 -510 -873 22 -223 117 -402 271 -510
207 -146 578 -152 787 -13 99 65 188 183 201 263 18 122 -132 168 -204 63 -41
-61 -126 -141 -177 -167 -66 -33 -116 -45 -193 -47 -86 -1 -134 8 -198 37
-138 62 -221 192 -237 370 l-6 69 480 0 c468 0 481 1 508 21 48 35 61 74 57
171 -13 299 -197 541 -464 609 -84 21 -227 25 -315 7z m255 -215 c146 -44 249
-172 266 -328 3 -25 7 -51 9 -57 3 -7 1 -13 -3 -14 -24 -3 -769 -4 -779 -1
-23 7 4 128 48 214 78 153 288 238 459 186z"/>
</g>
</svg>
